<?xml version="1.0" encoding="iso-8859-1"?>
<!-- Uploaded to: SVG Repo, www.svgrepo.com, Generator: SVG Repo Mixer Tools -->
<svg fill="#000000" height="800px" width="800px" version="1.1" id="Layer_1" xmlns="http://www.w3.org/2000/svg" xmlns:xlink="http://www.w3.org/1999/xlink" 
	 viewBox="0 0 222.278 222.278" xml:space="preserve">
<g>
	<g>
		<g>
			<polygon points="74.776,169.752 66.695,169.752 66.695,181.874 54.573,181.874 54.573,189.954 66.695,189.954 66.695,202.076 
				74.776,202.076 74.776,189.954 86.896,189.954 86.896,181.874 74.776,181.874 			"/>
			<path d="M123.26,72.783c0-4.457,3.626-8.081,8.081-8.081s8.081,3.624,8.081,8.081v4.04h8.081v-4.04
				c0-8.912-7.248-16.162-16.162-16.162s-16.162,7.25-16.162,16.162v4.04h8.081V72.783z"/>
			<path d="M86.896,56.621c-8.914,0-16.162,7.25-16.162,16.162v4.04h8.081v-4.04c0-4.457,3.626-8.081,8.081-8.081
				s8.081,3.624,8.081,8.081v4.04h8.081v-4.04C103.058,63.871,95.81,56.621,86.896,56.621z"/>
			<path d="M159.633,149.55h-28.291v-11.107c28.993-8.848,50.15-35.831,50.15-67.681C181.492,31.743,149.748,0,110.729,0
				c-39.02,0-70.762,31.743-70.762,70.762c0,32.145,21.563,59.303,50.971,67.892v10.896H62.646
				c-20.048,0-36.356,16.312-36.356,36.364v36.364h169.697v-36.364C195.987,165.862,179.68,149.55,159.633,149.55z M110.729,8.081
				c22.254,0,41.785,11.691,52.91,29.218c-7.208,4.703-15.516,7.201-24.217,7.201c-16.541,0-31.613-9.097-39.339-23.743
				l-2.525-4.782l-3.871,3.776c-8.349,8.144-19.37,12.628-31.033,12.628c-0.509,0-0.957,0.021-1.403,0.042
				C72.729,17.644,90.612,8.081,110.729,8.081z M48.047,70.762c0-10.903,2.808-21.157,7.724-30.097
				c1.586,0.141,2.893,0.04,4.16-0.065c0.801-0.067,1.665-0.142,2.722-0.142c12.074,0,23.572-4.068,32.868-11.549
				c9.667,14.718,26.061,23.67,43.9,23.67c10.071,0,19.706-2.821,28.105-8.163c3.737,8.022,5.884,16.928,5.884,26.345
				c0,34.194-27.533,62.036-61.591,62.626h-2.181C75.581,132.799,48.047,104.957,48.047,70.762z M187.907,214.197H34.371v-28.283
				c0-15.594,12.685-28.283,28.275-28.283h36.372V141.47h10.62c0.367,0.006,0.722,0.055,1.091,0.055c0.368,0,0.724-0.05,1.09-0.055
				h11.441v16.162h36.372c15.589,0,28.275,12.689,28.275,28.283V214.197z"/>
		</g>
	</g>
</g>
</svg>